<svg
    width="600"
    height="100"
    viewBox="-60 -60 1200 440"
    xmlns="http://www.w3.org/2000/svg"
    role="img"
    aria-label="Omora Labs"
>
  <!-- Black background -->
  <rect x="-60" y="-60" width="1200" height="440" fill="#000000" />

  <!-- Content group centered -->
  <g transform="translate(80, 0)">
    <!-- O symbol -->
    <g>
      <path
              fill="#ffffff"
              d="M289.398 65.904C284.795 59.5868 279.741 53.6124 274.272 48.0279C273.884 47.6366 273.515 47.2477 273.126 46.8564C255.842 29.5539 234.824 16.4424 211.685 8.52887V218.419C211.685 225.455 210.299 232.422 207.607 238.922C204.915 245.422 200.969 251.328 195.995 256.303C191.02 261.279 185.114 265.225 178.614 267.917C172.114 270.608 165.148 271.995 158.113 271.995H126.178V316.432C137.294 318.803 148.628 320 159.994 320C189.507 320.003 218.447 311.842 243.611 296.42C268.776 280.998 289.183 258.913 302.577 232.613C315.97 206.312 321.828 176.818 319.503 147.395C317.177 117.971 306.758 89.7638 289.398 65.8939V65.904Z"
          />
      <path
              fill="#ffffff"
              d="M159.994 0C130.481 0.00281059 101.544 8.16835 76.3827 23.5936C51.2216 39.0189 30.8164 61.103 17.4238 87.4036C4.03121 113.704 -1.82704 143.197 0.496918 172.62C2.82086 202.042 13.2365 230.249 30.5919 254.121C35.2048 260.436 40.2674 266.41 45.7402 271.995C46.1164 272.373 46.485 272.752 46.8612 273.156C64.1421 290.456 85.1533 303.571 108.285 311.494V101.583C108.291 87.3748 113.939 73.7503 123.987 63.7056C134.036 53.6609 147.662 48.018 161.869 48.018H193.805V3.58027C182.692 1.19987 171.359 -0.00020609 159.994 0Z"
          />
    </g>

    <!-- Text -->
    <text
          x="340"
          y="210"
          fill="#ffffff"
          font-size="140"
          font-family="system-ui, -apple-system, BlinkMacSystemFont, Segoe UI, sans-serif"
          font-weight="500"
      >
      mora Labs
    </text>
  </g>
</svg>
